inDegrees=yes
name=ik_S41_A09_T01
DataType=double
version=3
OpenSimVersion=4.3-2021-08-27-4bc7ad9
endheader
time	pelvis_tilt	pelvis_list	pelvis_rotation	pelvis_tx	pelvis_ty	pelvis_tz	hip_flexion_r	hip_adduction_r	hip_rotation_r	knee_angle_r	knee_angle_r_beta	ankle_angle_r	subtalar_angle_r	mtp_angle_r	hip_flexion_l	hip_adduction_l	hip_rotation_l	knee_angle_l	knee_angle_l_beta	ankle_angle_l	subtalar_angle_l	mtp_angle_l	lumbar_extension	lumbar_bending	lumbar_rotation	arm_flex_r	arm_add_r	arm_rot_r	elbow_flex_r	pro_sup_r	wrist_flex_r	wrist_dev_r	arm_flex_l	arm_add_l	arm_rot_l	elbow_flex_l	pro_sup_l	wrist_flex_l	wrist_dev_l
8.919999999999899	-6.88841882048987	-5.393640952549069	31.01453100430984	0	0.9399999999999999	0	39.54102668272371	-10.99279272176115	-10.60771563274153	44.15766174399275	0.7706965874146149	0	0	0	39.54102668272371	-10.99279272176115	-10.60771563274153	44.15766174399275	0.7706965874146149	0	0	0	-7.426393119479741	-2.925617394186351	5.0086175567089	64.97121810792497	-1.377575502833443	6.029969234856292	51.30153306885625	121.2062616729139	0	0	52.0242183688571	6.830390122294977	6.890340077211138	45.91067058279492	99.14739568893162	0	0
8.939999999999898	-6.848254223963035	-5.338224973346247	30.80671195422677	0	0.9399999999999999	0	39.54366365795784	-10.99112338349482	-10.60706071691229	44.16124424500896	0.7707591138528037	0	0	0	39.54366365795784	-10.99112338349482	-10.60706071691229	44.16124424500896	0.7707591138528037	0	0	0	-7.347281159817313	-2.934749751857972	5.217326785250376	65.3173620468673	-1.654227741070603	3.828756746255837	50.93138863431698	122.2610886170357	0	0	51.97244292555636	6.847176066386503	6.949901735310718	45.79407802992048	99.00899713361528	0	0
8.959999999999898	-6.815097426881762	-5.294656780418509	30.68409698166599	0	0.9399999999999999	0	39.54597874775318	-10.98965977380448	-10.60648614636587	44.1643905400746	0.7708140270609384	0	0	0	39.54597874775318	-10.98965977380448	-10.60648614636587	44.1643905400746	0.7708140270609384	0	0	0	-7.286406212733739	-2.936212568657743	5.345435427678259	65.3725680051548	-1.858993639914497	2.488261140614279	50.70797797457129	122.8091805167051	0	0	51.94168463505937	6.867976941061047	7.035074974299326	45.68319789354052	98.85183888682094	0	0
8.979999999999897	-6.787757066429289	-5.259099381400955	30.57501037713358	0	0.9399999999999999	0	39.54811108638926	-10.98831362700732	-10.60595734328006	44.16728995588198	0.7708646314131615	0	0	0	39.54811108638926	-10.98831362700732	-10.60595734328006	44.16728995588198	0.7708646314131615	0	0	0	-7.234098301359996	-2.943668643457362	5.486958297928664	65.42848373585166	-2.128552751826668	1.160144990091232	50.48523897139952	123.3502167818124	0	0	51.93008897702732	6.933464848817332	7.10180611435559	45.54557550329086	98.74427286812252	0	0
8.999999999999897	-6.756597807189701	-5.223498295735221	30.48200716396282	0	0.9399999999999999	0	39.55000844994454	-10.9871177932077	-10.60548725231225	44.16987188618513	0.7709096945980085	0	0	0	39.55000844994454	-10.9871177932077	-10.60548725231225	44.16987188618513	0.7709096945980085	0	0	0	-7.184609941315776	-2.938661670030577	5.544860047551238	65.38512477819265	-2.216597341839905	0.4456820146878236	50.23264560944676	123.260143207527	0	0	51.91793485549255	6.971170006460592	7.080738918142771	45.41698349709328	98.65677827483232	0	0
9.019999999999897	-6.731685268268789	-5.188383622252744	30.43419797314614	0	0.9399999999999999	0	39.55195211770828	-10.98591223196435	-10.60501069905982	44.17255438754829	0.7709565130789849	0	0	0	39.55195211770828	-10.98591223196435	-10.60501069905982	44.17255438754829	0.7709565130789849	0	0	0	-7.145372063646317	-2.920689719671684	5.54574019316504	65.29609954781155	-2.135285889448498	0.3920545146152262	49.87476482371667	122.4732347310043	0	0	51.92903408761602	6.97876924629289	7.020494757330341	45.28781757657829	98.57485971390409	0	0
9.039999999999896	-6.704902928614318	-5.175725059773306	30.45514490381289	0	0.9399999999999999	0	39.55328473835867	-10.98510401685418	-10.60468869730015	44.1744291978423	0.7709892346914657	0	0	0	39.55328473835867	-10.98510401685418	-10.60468869730015	44.1744291978423	0.7709892346914657	0	0	0	-7.121466383940678	-2.9110189904132	5.474972209430811	65.1641945606098	-2.049531257396989	0.5075725606905216	49.55682072604433	121.4483252175679	0	0	51.87073447218246	6.929968511940047	6.982839062006436	45.23062025144073	98.5886629693907	0	0
9.059999999999896	-6.708644112742431	-5.13160990897808	30.39279174257599	0	0.9399999999999999	0	39.55455806004063	-10.98433178205263	-10.60438100315038	44.17621991109964	0.7710204885337654	0	0	0	39.55455806004063	-10.98433178205263	-10.60438100315038	44.17621991109964	0.7710204885337654	0	0	0	-7.10321676425241	-2.869283357232323	5.469152847311576	65.12739119298045	-2.039340677047754	0.6032607092039531	49.3485986927888	120.8446552678318	0	0	51.91526249684233	6.9336865176054	6.859822615952191	45.19170938547555	98.5671252999027	0	0
9.079999999999895	-6.698900425145521	-5.0796968351853	30.25968891793027	0	0.9399999999999999	0	39.55616493635709	-10.98332643303703	-10.60398461231484	44.17841605643735	0.7710588185007607	0	0	0	39.55616493635709	-10.98332643303703	-10.60398461231484	44.17841605643735	0.7710588185007607	0	0	0	-7.068647308279774	-2.830252557669056	5.475551483669093	65.01688621782992	-2.058904198717824	0.5870941500076571	48.97773956238586	119.8530706803275	0	0	51.8775215040452	6.928932516915391	6.826902037564361	45.12929204331622	98.5816227949887	0	0
9.099999999999895	-6.715019368090907	-5.062616107132813	30.14782802145265	0	0.9399999999999999	0	39.5574997285481	-10.9824889234264	-10.60365469368036	44.18023490941569	0.7710905634738425	0	0	0	39.5574997285481	-10.9824889234264	-10.60365469368036	44.18023490941569	0.7710905634738425	0	0	0	-7.067990664742357	-2.820748097327811	5.558913101019996	65.08208069991727	-2.335148885045175	-0.3349672811479315	48.98977722865445	120.2751621454351	0	0	51.91162211528361	6.996751640614163	6.843955096960473	45.1239228491576	98.5878733985607	0	0
9.119999999999894	-6.702579969479436	-5.043272683701218	30.07294528751373	0	0.9399999999999999	0	39.55925456079115	-10.98138667066996	-10.60322059621302	44.18262247129667	0.7711322342897609	0	0	0	39.55925456079115	-10.98138667066996	-10.60322059621302	44.18262247129667	0.7711322342897609	0	0	0	-7.045436200992446	-2.815225876639706	5.589453672849075	65.16378523676674	-2.472572762696192	-0.7910786030703596	48.85623236030496	120.6018951355227	0	0	51.89936955203788	6.993587851899164	6.828558586428472	45.0987001115735	98.56073009363195	0	0
9.139999999999894	-6.689849085154594	-5.028325619042887	30.036598447558	0	0.9399999999999999	0	39.55001545122006	-10.98473911563485	-10.6049777867731	44.16927966295139	0.770899358352673	0	0	0	39.55001545122006	-10.98473911563485	-10.6049777867731	44.16927966295139	0.770899358352673	0	0	0	-7.026230871189994	-2.808999070975507	5.58401559959538	65.12513816908526	-2.44614448972838	-0.7604811999226263	48.79687137772869	120.6956792845441	0	-1.679355339201271e-36	51.92461392277743	6.995597718411577	6.816476946658571	45.03103706141029	98.57424561134435	0	-1.679355339201271e-36
9.159999999999894	-6.6414980301141	-4.986537643333407	29.94367976815559	0	0.9399999999999999	0	39.55249302384912	-10.98317969900974	-10.60436392740443	44.17264541785094	0.7709581018574854	0	0	0	39.55249302384912	-10.98317969900974	-10.60436392740443	44.17264541785094	0.7709581018574854	0	0	0	-6.963525291160984	-2.797123202081206	5.584158861023528	65.20866196895216	-2.503605746829615	-1.093644353135147	48.60102346823324	120.8919846126158	0	0	51.84229345409997	6.954342982773284	6.718879512347774	44.96674628297986	98.54431430920569	0	0
9.179999999999893	-6.634670164291395	-4.980388821487443	29.92490947323542	0	0.9399999999999999	0	39.54289730866601	-10.98460922394576	-10.60572989440678	44.15807206107339	0.7707037487986492	0	0	0	39.54289730866601	-10.98460922394576	-10.60572989440678	44.15807206107339	0.7707037487986492	0	0	0	-6.953683936596379	-2.795714987953769	5.57932698924213	65.26531887727434	-2.446181887297931	-1.110640607550084	48.51067590131804	120.9103398139939	0	0	51.84110129713214	6.963576752541027	6.697758986445217	44.90641772447638	98.51873460212377	0	0
9.199999999999893	-6.608095011633361	-4.959774042601023	29.91451973563048	0	0.9399999999999999	0	39.53712560639796	-10.98730596007453	-10.60696578291937	44.14995695722077	0.7705621135172798	0	0	0	39.53712560639796	-10.98730596007453	-10.60696578291937	44.14995695722077	0.7705621135172798	0	0	0	-6.921124660365155	-2.788684252830171	5.558742870375174	65.27947041654937	-2.356761441686414	-1.049536024135221	48.41089584319507	120.9372793929861	0	0	51.82116793183069	6.954142932426612	6.654858467741126	44.85191210382106	98.50492269311042	0	0
9.219999999999892	-6.576075618963408	-4.948752532344222	29.8991245987098	0	0.9399999999999999	0	39.5376747122631	-10.98697045232381	-10.6068322721592	44.15072310258795	0.7705754852764858	0	0	0	39.5376747122631	-10.98697045232381	-10.6068322721592	44.15072310258795	0.7705754852764858	0	0	0	-6.888840066446892	-2.792974138380284	5.543462513579095	65.31714387982214	-2.270350908834925	-0.9688822712245185	48.35800487904007	120.911034924408	0	0	51.76953349345459	6.967603226823803	6.667081175239162	44.83443649670356	98.50154587653935	0	0
9.239999999999892	-6.54977420447566	-4.92525024426167	29.86825679037411	0	0.9399999999999999	0	39.53910568191548	-10.9860731760413	-10.60647834448542	44.1526732475184	0.7706095217264133	0	0	0	39.53910568191548	-10.9860731760413	-10.60647834448542	44.1526732475184	0.7706095217264133	0	0	0	-6.854540138406036	-2.785420706268284	5.541121654016775	65.35594942000785	-2.220980868129911	-0.9395507235874683	48.16130578090439	120.9441921306947	0	0	51.82255129198563	7.062314332690542	6.664430863575442	44.69437867100792	98.5007344417144	0	0
9.259999999999891	-6.520736312793206	-4.909792951150142	29.85575436060638	0	0.9399999999999999	0	39.54067676053834	-10.98508819079253	-10.60608974777798	44.15481321539143	0.7706468712116845	0	0	0	39.54067676053834	-10.98508819079253	-10.60608974777798	44.15481321539143	0.7706468712116845	0	0	0	-6.821335331064609	-2.787291811763998	5.544865112581296	65.41535596166658	-2.229703750446894	-0.928173223526918	47.97140332908024	121.0324076153174	0	0	51.94336411653641	7.146232162178888	6.633969106471794	44.58105744153953	98.39338437009205	0	0
9.279999999999891	-6.484109328594505	-4.901844798845639	29.871299044114	0	0.9399999999999999	0	39.54191108271566	-10.98431816652085	-10.60578534937543	44.15649959984849	0.7706763041729147	0	0	0	39.54191108271566	-10.98431816652085	-10.60578534937543	44.15649959984849	0.7706763041729147	0	0	0	-6.785648155396021	-2.79855685110808	5.541873699298168	65.45679430679189	-2.24214287730114	-0.9018065827804335	47.80958281046208	121.0618408913426	0	0	52.02201442368011	7.145695609638566	6.61254107434212	44.44399411322912	98.35346672287626	0	0
9.299999999999891	-6.462327422365042	-4.896968292026799	29.89684607392588	0	0.9399999999999999	0	39.54245508833783	-10.98398500046599	-10.60565282924914	44.15725578981274	0.7706895021775614	0	0	0	39.54245508833783	-10.98398500046599	-10.60565282924914	44.15725578981274	0.7706895021775614	0	0	0	-6.764357670095595	-2.805058558276416	5.539301791491287	65.50317973560084	-2.272631827771693	-0.7782558254122662	47.75436502216567	121.0990372475923	0	0	51.97402598295338	7.143195697141579	6.646314636815895	44.4136786336861	98.34789134735188	0	0
9.31999999999989	-6.428252713155681	-4.88148040798786	29.92847036662629	0	0.9399999999999999	0	39.54307019121524	-10.98360608738072	-10.60550240375085	44.1581060923512	0.7707043427564957	0	0	0	39.54307019121524	-10.98360608738072	-10.60550240375085	44.1581060923512	0.7707043427564957	0	0	0	-6.726978816610726	-2.808771317584304	5.537600271357538	65.4965578419319	-2.30520858848698	-0.6165565822571336	47.68031142445002	121.1001878521883	0	0	51.95437804254412	7.161732331904461	6.68544595055665	44.34552870348904	98.30059173710526	0	0
9.33999999999989	-6.3958975832957	-4.864575763061176	29.95938406194216	0	0.9399999999999999	0	39.54370195042773	-10.98321782153928	-10.60534813540023	44.15898106783715	0.7707196139595998	0	0	0	39.54370195042773	-10.98321782153928	-10.60534813540023	44.15898106783715	0.7707196139595998	0	0	0	-6.690999114461827	-2.809132406242067	5.528113219720974	65.43751160726332	-2.325004187390133	-0.4442387377506292	47.61754558998835	121.1275112361356	0	0	51.88935104993597	7.172898803989936	6.709499260001818	44.29764121916224	98.26403153482305	0	0
